HIERARCHY
ROOT Hip
{
	OFFSET 0.000000 0.000000 0.000000 
	CHANNELS 6 Xposition Yposition Zposition Xrotation Yrotation Zrotation
	JOINT LowerSpine
	{
		OFFSET 0.000000 8.345300 -5.129200 
		CHANNELS 3 Xrotation Yrotation Zrotation
		JOINT MiddleSpine
		{
			OFFSET 10.856900 0.000000 0.000000 
			CHANNELS 3 Xrotation Yrotation Zrotation
			JOINT Chest
			{
				OFFSET 15.298400 0.000000 0.000000 
				CHANNELS 3 Xrotation Yrotation Zrotation
				JOINT Neck
				{
					OFFSET 25.661800 -0.598600 0.000000 
					CHANNELS 3 Xrotation Yrotation Zrotation
					JOINT Head
					{
						OFFSET 8.882900 0.000000 0.000000 
						CHANNELS 3 Xrotation Yrotation Zrotation
						End Site
						{
							OFFSET 19.739901 0.000000 0.000000 
						}
					}
				}
				JOINT RClavicle
				{
					OFFSET 23.687799 0.000000 3.158400 
					CHANNELS 3 Xrotation Yrotation Zrotation
					JOINT RShoulder
					{
						OFFSET -15.594500 -3.948000 0.987000 
						CHANNELS 3 Xrotation Yrotation Zrotation
						JOINT RForearm
						{
							OFFSET -31.337000 0.000000 0.197400 
							CHANNELS 3 Xrotation Yrotation Zrotation
							JOINT RHand
							{
								OFFSET -26.402100 0.000000 0.000000 
								CHANNELS 3 Xrotation Yrotation Zrotation
								End Site
								{
									OFFSET -15.791900 -0.987000 0.000000 
								}
							}
						}
					}
				}
				JOINT LClavicle
				{
					OFFSET 23.687799 0.000000 -3.158400 
					CHANNELS 3 Xrotation Yrotation Zrotation
					JOINT LShoulder
					{
						OFFSET -15.594500 -3.948000 -0.987000 
						CHANNELS 3 Xrotation Yrotation Zrotation
						JOINT LForearm
						{
							OFFSET -31.337000 0.000000 -0.197400 
							CHANNELS 3 Xrotation Yrotation Zrotation
							JOINT LHand
							{
								OFFSET -26.402100 0.000000 0.000000 
								CHANNELS 3 Xrotation Yrotation Zrotation
								End Site
								{
									OFFSET -15.791900 -0.987000 0.000000 
								}
							}
						}
					}
				}
			}
		}
	}
	JOINT RThigh
	{
		OFFSET -8.882900 0.448100 0.000000 
		CHANNELS 3 Xrotation Yrotation Zrotation
		JOINT RShin
		{
			OFFSET 43.131599 0.000000 -0.493500 
			CHANNELS 3 Xrotation Yrotation Zrotation
			JOINT RFoot
			{
				OFFSET 0.000000 -44.725601 -0.404700 
				CHANNELS 3 Xrotation Yrotation Zrotation
				JOINT RToe
				{
					OFFSET 0.000000 -3.933200 12.195300 
					CHANNELS 3 Xrotation Yrotation Zrotation
					End Site
					{
						OFFSET 6.772500 0.000000 0.000000 
					}
				}
			}
		}
	}
	JOINT LThigh
	{
		OFFSET 8.882900 0.448100 0.000000 
		CHANNELS 3 Xrotation Yrotation Zrotation
		JOINT LShin
		{
			OFFSET 43.131599 0.000000 0.493500 
			CHANNELS 3 Xrotation Yrotation Zrotation
			JOINT LFoot
			{
				OFFSET 0.000000 -44.725601 0.404700 
				CHANNELS 3 Xrotation Yrotation Zrotation
				JOINT LToe
				{
					OFFSET 0.000000 -3.933200 -12.195300 
					CHANNELS 3 Xrotation Yrotation Zrotation
					End Site
					{
						OFFSET 6.772500 0.000000 0.000000 
					}
				}
			}
		}
	}
}
MOTION
Frames: 16
Frame Time: 0.016949
10.964100 92.652603 3.405000 -5.947346 -1.665345 0.123267 -89.999992 -90.000000 0.000000 -0.020702 0.024662 -0.040067 -0.062767 0.065009 -0.096329 0.000000 0.000000 0.000000 0.000000 0.000000 0.000000 90.038437 -0.809955 -79.092117 12.233680 18.969770 68.886543 2.061146 21.490919 -6.302217 0.000000 0.000000 0.000000 -90.017342 0.638353 -81.414543 -23.912399 -45.904411 59.149170 -1.968209 -20.703711 -6.268767 0.000000 0.000000 0.000000 -70.477928 88.951302 -8.156588 89.982307 1.970171 89.998329 -7.059062 -0.358185 -0.155223 179.802505 90.000000 0.000000 116.955704 88.334473 163.675598 -89.979469 -2.294114 89.998032 6.599149 0.470036 -0.206724 180.261505 -90.000000 0.000000 
10.998200 92.670502 3.327400 -5.897790 -1.633395 0.138108 -89.999992 -90.000000 0.000000 -0.007418 0.011245 -0.030235 -0.021981 0.036738 -0.064432 0.000000 0.000000 0.000000 0.000000 0.000000 0.000000 90.039558 -0.817632 -78.987907 12.136650 18.589630 68.742104 2.068502 21.552879 -6.304915 0.000000 0.000000 0.000000 -90.019463 0.658604 -81.140968 -23.713699 -46.298840 59.206581 -1.897127 -20.095989 -6.243990 0.000000 0.000000 0.000000 -70.134422 88.992439 -8.699413 89.980591 2.161120 89.998192 -7.060254 -0.296839 -0.132177 179.800797 90.000000 0.000000 116.468102 88.294373 163.958801 -89.977783 -2.483421 89.997902 6.581935 0.468659 -0.202548 180.272400 -90.000000 0.000000 
11.032600 92.689301 3.258500 -5.839177 -1.655426 0.178133 -89.999992 -90.000000 0.000000 0.008797 -0.002650 -0.000366 0.013913 0.009874 -0.002795 0.000000 0.000000 0.000000 0.000000 0.000000 0.000000 90.038750 -0.812114 -79.062813 11.877780 18.298321 68.791786 2.046247 21.365280 -6.296773 0.000000 0.000000 0.000000 -90.021919 0.680872 -80.840057 -23.503651 -46.670959 59.343330 -1.848937 -19.681259 -6.227595 0.000000 0.000000 0.000000 -69.351608 89.069687 -9.749643 89.977699 2.484656 89.997993 -7.169043 -0.242403 -0.103932 179.848907 90.000000 0.000000 115.599403 88.220940 164.653305 -89.976639 -2.609838 89.997833 6.423650 0.480480 -0.199226 180.485794 -90.000000 0.000000 
11.063700 92.701500 3.239300 -5.834376 -1.652197 0.188559 -89.999992 -90.000000 0.000000 0.017317 -0.008193 0.029013 0.042346 -0.018590 0.085474 0.000000 0.000000 0.000000 0.000000 0.000000 0.000000 90.035980 -0.792523 -79.328613 11.601070 17.988831 69.124519 2.030836 21.235109 -6.291175 0.000000 0.000000 0.000000 -90.024261 0.701220 -80.564949 -23.394329 -46.840912 59.499599 -1.858150 -19.760719 -6.230705 0.000000 0.000000 0.000000 -68.034714 89.106613 -11.126010 89.976967 2.566869 89.997917 -7.196733 -0.277434 -0.113900 179.879105 90.000000 0.000000 115.347504 88.184380 164.934402 -89.977562 -2.506791 89.997887 6.229086 0.387884 -0.150784 180.683899 -90.000000 0.000000 
11.093100 92.707603 3.239300 -5.824260 -1.543026 0.168665 -89.999992 -90.000000 0.000000 0.021881 -0.019406 0.070240 0.054039 -0.054447 0.188295 0.000000 0.000000 0.000000 0.000000 0.000000 0.000000 90.031860 -0.762237 -79.739143 11.346610 17.834850 69.637573 2.004775 21.014429 -6.281782 0.000000 0.000000 0.000000 -90.026077 0.716474 -80.358627 -23.356649 -46.908371 59.597149 -1.872877 -19.887560 -6.235699 0.000000 0.000000 0.000000 -66.106102 89.074913 -13.004100 89.978111 2.439148 89.998016 -7.030889 -0.490022 -0.213402 179.727905 90.000000 0.000000 115.885101 88.201607 164.441406 -89.978668 -2.383078 89.997971 6.133113 0.088007 -0.024328 180.737000 -90.000000 0.000000 
11.121000 92.715897 3.207400 -5.741914 -1.328613 0.171576 -89.999992 -90.000000 0.000000 0.018545 -0.025921 0.082772 0.037323 -0.104058 0.285692 0.000000 0.000000 0.000000 0.000000 0.000000 0.000000 90.027473 -0.727913 -80.203972 10.923020 18.125410 69.973129 1.955398 20.594530 -6.264244 0.000000 0.000000 0.000000 -90.027283 0.726259 -80.226212 -23.320580 -47.059521 59.560471 -1.840075 -19.604750 -6.224616 0.000000 0.000000 0.000000 -65.971497 89.037033 -13.267370 89.977753 2.480509 89.997993 -6.789536 -0.985921 -0.459701 179.391403 90.000000 0.000000 116.774300 88.239159 163.461899 -89.979118 -2.332722 89.997993 6.008488 -0.455423 0.195739 180.781494 -90.000000 0.000000 
11.139400 92.715698 3.173600 -5.717662 -1.249752 0.173991 -89.999992 -90.000000 0.000000 -0.000833 -0.050846 0.114502 -0.013988 -0.170455 0.354089 0.000000 0.000000 0.000000 0.000000 0.000000 0.000000 90.023750 -0.696997 -80.622269 10.195490 18.810209 69.517967 1.968664 20.707581 -6.268923 0.000000 0.000000 0.000000 -90.028168 0.733419 -80.129303 -23.488960 -46.882488 59.349590 -1.854823 -19.732031 -6.229580 0.000000 0.000000 0.000000 -68.238983 89.044144 -11.138850 89.976257 2.646051 89.997887 -6.770807 -1.339806 -0.643609 179.286606 90.000000 0.000000 116.939499 88.251648 163.301895 -89.979958 -2.239243 89.998047 5.958399 -0.636015 0.268050 180.730103 -90.000000 0.000000 
11.108600 92.694801 3.163100 -5.814382 -1.629774 0.081130 -89.999992 -90.000000 0.000000 -0.026956 -0.074773 0.115489 -0.094089 -0.250936 0.371530 0.000000 0.000000 0.000000 0.000000 0.000000 0.000000 90.021263 -0.675077 -80.918610 9.155057 19.882401 68.088387 2.046309 21.365810 -6.296796 0.000000 0.000000 0.000000 -90.029343 0.742692 -80.003723 -24.043980 -45.901440 59.041088 -2.016695 -21.115450 -6.286072 0.000000 0.000000 0.000000 -70.448608 89.031349 -8.863782 89.976486 2.619931 89.997910 -6.998637 -0.953942 -0.464452 179.560196 90.000000 0.000000 116.212196 88.246193 164.182800 -89.980492 -2.179724 89.998108 6.248425 0.244260 -0.094812 180.436096 -90.000000 0.000000 
11.030200 92.675301 3.142900 -5.888912 -2.174883 -0.084082 -89.999992 -90.000000 0.000000 -0.058621 -0.103721 0.098044 -0.184993 -0.337689 0.320837 0.000000 0.000000 0.000000 0.000000 0.000000 0.000000 90.020088 -0.664498 -81.061577 7.874915 21.171780 66.227013 2.082809 21.673210 -6.310185 0.000000 0.000000 0.000000 -90.031357 0.758320 -79.792084 -24.649000 -44.716461 58.684139 -2.203119 -22.677080 -6.355600 0.000000 0.000000 0.000000 -72.075027 88.936462 -7.220662 89.976593 2.610277 89.997917 -7.147658 -0.280848 -0.135317 179.714493 90.000000 0.000000 116.345398 88.284233 164.068802 -89.978882 -2.359683 89.997993 6.619911 1.320680 -0.546068 180.205704 -90.000000 0.000000 
10.978500 92.686897 3.112600 -5.941000 -2.401100 -0.199562 -89.999992 -90.000000 0.000000 -0.083583 -0.129339 0.056660 -0.264092 -0.420103 0.190354 0.000000 0.000000 0.000000 0.000000 0.000000 0.000000 90.020088 -0.664458 -81.062149 6.518435 22.236570 64.174141 2.076932 21.623800 -6.308017 0.000000 0.000000 0.000000 -90.034470 0.781533 -79.477547 -25.002291 -44.014191 58.152229 -2.270686 -23.234501 -6.381953 0.000000 0.000000 0.000000 -73.541542 88.841797 -5.896342 89.973801 2.921056 89.997726 -7.081748 0.008758 0.012756 179.534195 90.000000 0.000000 118.015701 88.359970 162.309402 -89.976479 -2.627618 89.997810 6.632029 1.407723 -0.565556 180.355896 -90.000000 0.000000 
10.989800 92.731903 3.092400 -6.085611 -2.512824 -0.228305 -89.999992 -90.000000 0.000000 -0.097516 -0.148450 -0.008802 -0.315401 -0.486950 -0.024677 0.000000 0.000000 0.000000 0.000000 0.000000 0.000000 90.021004 -0.672819 -80.949097 5.130138 23.011610 61.717049 2.072898 21.589861 -6.306532 0.000000 0.000000 0.000000 -90.038391 0.809526 -79.097816 -25.226740 -43.589352 57.536659 -2.277597 -23.291260 -6.384683 0.000000 0.000000 0.000000 -73.567047 88.871742 -5.899206 89.971207 3.209931 89.997581 -6.877840 0.242116 0.137003 179.336700 90.000000 0.000000 119.113800 88.368958 161.309998 -89.975883 -2.693899 89.997772 6.356040 1.083815 -0.417534 180.668594 -90.000000 0.000000 
11.011700 92.791000 3.073300 -6.304887 -2.728260 -0.276624 -89.999992 -90.000000 0.000000 -0.102314 -0.160109 -0.095912 -0.337016 -0.528389 -0.317467 0.000000 0.000000 0.000000 0.000000 0.000000 0.000000 90.022743 -0.688144 -80.741982 3.817507 23.634670 58.882900 2.095933 21.783421 -6.315044 0.000000 0.000000 0.000000 -90.042374 0.836637 -78.729713 -25.407921 -43.241390 57.020630 -2.278866 -23.301670 -6.385184 0.000000 0.000000 0.000000 -72.708237 88.921951 -6.604827 89.971062 3.227050 89.997566 -6.501890 0.643036 0.336042 179.091995 90.000000 0.000000 119.470901 88.351860 161.196594 -89.976387 -2.637740 89.997803 6.261257 1.209072 -0.495470 180.674896 -90.000000 0.000000 
10.977700 92.838402 3.039200 -6.522838 -2.830087 -0.437596 -89.999992 -90.000000 0.000000 -0.101778 -0.163053 -0.198456 -0.339443 -0.538355 -0.663988 0.000000 0.000000 0.000000 0.000000 0.000000 0.000000 90.025177 -0.709070 -80.458961 2.666720 24.358999 55.856682 2.130125 22.069731 -6.327812 0.000000 0.000000 0.000000 -90.045441 0.856709 -78.457031 -25.500259 -43.055408 56.458900 -2.224590 -22.854719 -6.363909 0.000000 0.000000 0.000000 -73.600357 88.787643 -5.608236 89.970192 3.324240 89.997528 -6.058485 0.793059 0.399853 178.601196 90.000000 0.000000 121.852203 88.472557 158.915604 -89.974472 -2.852191 89.997673 6.519714 1.527731 -0.653341 180.407104 -90.000000 0.000000 
10.901100 92.863197 3.008400 -6.738594 -2.815482 -0.618373 -89.999992 -90.000000 0.000000 -0.100134 -0.157196 -0.304750 -0.336396 -0.516432 -1.022537 0.000000 0.000000 0.000000 0.000000 0.000000 0.000000 90.028038 -0.732463 -80.142418 1.228277 25.403500 53.060928 2.138933 22.143311 -6.331126 0.000000 0.000000 0.000000 -90.046753 0.865133 -78.342468 -25.524549 -42.997051 55.861469 -2.130270 -22.070950 -6.327870 0.000000 0.000000 0.000000 -74.941277 88.574730 -4.169807 89.968811 3.478329 89.997452 -5.782413 0.708729 0.346876 178.218002 90.000000 0.000000 126.139702 88.653358 154.642700 -89.970993 -3.239188 89.997467 6.721201 1.713752 -0.744594 180.343307 -90.000000 0.000000 
10.843700 92.875298 3.015500 -6.988294 -2.930920 -0.701718 -89.999992 -90.000000 0.000000 -0.099737 -0.143696 -0.400780 -0.335669 -0.467572 -1.342828 0.000000 0.000000 0.000000 0.000000 0.000000 0.000000 90.030663 -0.753107 -79.862923 -0.786652 26.255890 50.769989 2.192810 22.591631 -6.351629 0.000000 0.000000 0.000000 -90.045914 0.859772 -78.415390 -25.505529 -42.958881 55.591728 -2.082426 -21.669991 -6.310047 0.000000 0.000000 0.000000 -74.921547 88.510017 -3.883276 89.970177 3.324491 89.997528 -5.713085 0.819731 0.385765 178.328201 90.000000 0.000000 128.522797 88.724953 152.437607 -89.969353 -3.422972 89.997383 6.664274 1.720986 -0.760906 180.468094 -90.000000 0.000000 
10.813200 92.886002 3.046400 -7.239681 -3.232234 -0.735664 -89.999992 -90.000000 0.000000 -0.100462 -0.126080 -0.473966 -0.337435 -0.399736 -1.581611 0.000000 0.000000 0.000000 0.000000 0.000000 0.000000 90.032280 -0.765375 -79.696693 -3.104504 26.479931 48.633690 2.370523 24.049620 -6.421986 0.000000 0.000000 0.000000 -90.042992 0.840753 -78.673859 -25.424829 -42.913052 55.786270 -2.094559 -21.771891 -6.314538 0.000000 0.000000 0.000000 -74.294449 88.545998 -4.148930 89.972511 3.065114 89.997673 -5.769134 1.125529 0.514554 178.704697 90.000000 0.000000 128.844101 88.727203 152.414902 -89.969414 -3.415845 89.997383 6.597857 1.555870 -0.693883 180.425903 -90.000000 0.000000 
